# xmcd
#
# Track frame offsets: 
#        150
#        16396
#        30405
#        48083
#        65496
#        83779
#        107791
#        123977
#        137040
#        158234
#        176480
#
# Disc length: 2601 seconds
#
# Revision: 0
# Processed by: cddbd v1.5.2PL0 Copyright (c) Steve Scherf et al.
# Submitted via: ExactAudioCopy v1.0b1
#
DISCID=860a270b
DTITLE=Alison Krauss and Union Station - Paper Airplane
DYEAR=2011
DGENRE=Bluegrass
TTITLE0=Paper Airplane
TTITLE1=Dust Bowl Children
TTITLE2=Lie Awake
TTITLE3=Lay My Burden Down
TTITLE4=My Love Follows You Where You Go
TTITLE5=Dimming of the Day
TTITLE6=On the Outside Looking In
TTITLE7=Miles to Go
TTITLE8=Sinking Stone
TTITLE9=Bonita and Bill Butler
TTITLE10=My Opening Farewell
EXTD=
EXTT0=
EXTT1=
EXTT2=
EXTT3=
EXTT4=
EXTT5=
EXTT6=
EXTT7=
EXTT8=
EXTT9=
EXTT10=
PLAYORDER=
